<svg width="20" height="60" viewBox="0 0 20 60" fill="none" xmlns="http://www.w3.org/2000/svg">
<rect width="20" height="60" transform="translate(20 60) rotate(180)" fill="#B8A16D"/>
<path d="M10.9309 40.0551L0.306273 49.327C0.210135 49.4108 0.133033 49.5144 0.0801898 49.6308C0.0273467 49.7472 -8.8527e-07 49.8737 -8.74084e-07 50.0016C-8.62898e-07 50.1296 0.0273467 50.2561 0.0801898 50.3725C0.133033 50.4889 0.210136 50.5925 0.306274 50.6763L10.9309 59.9454C10.9629 59.9734 11.0023 59.9915 11.0443 59.9977C11.0863 60.0038 11.1291 59.9977 11.1678 59.98C11.2064 59.9624 11.2392 59.9339 11.2622 59.8981C11.2852 59.8622 11.2975 59.8204 11.2975 59.7777L11.2975 57.515C11.2975 57.3864 11.242 57.2635 11.1448 57.1769L4.13669 51.0618L19.7778 51.0618C19.9 51.0618 20 50.9612 20 50.8383L20 49.1622C20 49.0393 19.9 48.9387 19.7778 48.9387L4.13669 48.9387L11.1448 42.8236C11.242 42.7398 11.2975 42.6168 11.2975 42.4855L11.2975 40.2228C11.2975 40.0328 11.0753 39.9294 10.9309 40.0551Z" fill="#1E1E1E"/>
<path d="M10.9309 20.0551L0.306273 29.327C0.210135 29.4108 0.133033 29.5144 0.0801898 29.6308C0.0273467 29.7472 -8.8527e-07 29.8737 -8.74084e-07 30.0016C-8.62897e-07 30.1296 0.0273467 30.2561 0.0801898 30.3725C0.133033 30.4889 0.210136 30.5925 0.306274 30.6763L10.9309 39.9454C10.9629 39.9734 11.0023 39.9915 11.0443 39.9977C11.0863 40.0038 11.1291 39.9977 11.1678 39.98C11.2064 39.9624 11.2392 39.9339 11.2622 39.8981C11.2852 39.8622 11.2975 39.8204 11.2975 39.7777L11.2975 37.515C11.2975 37.3864 11.242 37.2635 11.1448 37.1769L4.13669 31.0618L19.7778 31.0618C19.9 31.0618 20 30.9612 20 30.8383L20 29.1622C20 29.0393 19.9 28.9387 19.7778 28.9387L4.13669 28.9387L11.1448 22.8236C11.242 22.7398 11.2975 22.6168 11.2975 22.4855L11.2975 20.2228C11.2975 20.0328 11.0753 19.9294 10.9309 20.0551Z" fill="#1E1E1E"/>
<path d="M10.9309 0.0551422L0.306273 9.327C0.210135 9.41081 0.133033 9.51443 0.0801898 9.63083C0.027347 9.74723 -8.79709e-07 9.87369 -8.74084e-07 10.0016C-8.68459e-07 10.1296 0.027347 10.2561 0.0801898 10.3725C0.133033 10.4889 0.210135 10.5925 0.306274 10.6763L10.9309 19.9454C10.9629 19.9734 11.0023 19.9915 11.0443 19.9977C11.0863 20.0038 11.1291 19.9977 11.1678 19.98C11.2064 19.9624 11.2392 19.9339 11.2622 19.8981C11.2852 19.8622 11.2975 19.8204 11.2975 19.7777L11.2975 17.515C11.2975 17.3864 11.242 17.2635 11.1448 17.1769L4.13669 11.0618L19.7778 11.0618C19.9 11.0618 20 10.9612 20 10.8383L20 9.16218C20 9.03926 19.9 8.93869 19.7778 8.93869L4.13669 8.93869L11.1448 2.82357C11.242 2.73976 11.2975 2.61684 11.2975 2.48555L11.2975 0.222756C11.2975 0.0327934 11.0753 -0.0705684 10.9309 0.0551422Z" fill="#1E1E1E"/>
</svg>
