<svg width="20" height="60" viewBox="0 0 20 60" fill="none" xmlns="http://www.w3.org/2000/svg">
<rect width="20" height="60" fill="#B1404B"/>
<path d="M9.06911 19.9449L19.6937 10.673C19.7899 10.5892 19.867 10.4856 19.9198 10.3692C19.9727 10.2528 20 10.1263 20 9.99835C20 9.8704 19.9727 9.74393 19.9198 9.62753C19.867 9.51114 19.7899 9.40752 19.6937 9.32371L9.06911 0.0546433C9.03709 0.0266341 8.99774 0.0084728 8.95574 0.00232313C8.91374 -0.00382655 8.87087 0.00229442 8.83223 0.0199568C8.7936 0.0376193 8.76082 0.0660788 8.73781 0.101945C8.71481 0.137812 8.70253 0.179574 8.70246 0.222257V2.48505C8.70246 2.61355 8.75801 2.73647 8.85523 2.82307L15.8633 8.93819H0.222214C0.0999964 8.93819 7.81921e-08 9.03876 7.28498e-08 9.16168L0 10.8378C-5.34231e-09 10.9607 0.0999963 11.0613 0.222214 11.0613L15.8633 11.0613L8.85523 17.1764C8.75801 17.2602 8.70246 17.3832 8.70246 17.5145V19.7772C8.70246 19.9672 8.92467 20.0706 9.06911 19.9449Z" fill="#1E1E1E"/>
<path d="M9.06911 39.9449L19.6937 30.673C19.7899 30.5892 19.867 30.4856 19.9198 30.3692C19.9727 30.2528 20 30.1263 20 29.9984C20 29.8704 19.9727 29.7439 19.9198 29.6275C19.867 29.5111 19.7899 29.4075 19.6937 29.3237L9.06911 20.0546C9.03709 20.0266 8.99773 20.0085 8.95574 20.0023C8.91374 19.9962 8.87087 20.0023 8.83223 20.02C8.7936 20.0376 8.76082 20.0661 8.73781 20.1019C8.71481 20.1378 8.70253 20.1796 8.70246 20.2223V22.485C8.70246 22.6136 8.75801 22.7365 8.85523 22.8231L15.8633 28.9382H0.222214C0.0999964 28.9382 7.81921e-08 29.0388 7.28498e-08 29.1617L0 30.8378C-5.34231e-09 30.9607 0.0999963 31.0613 0.222214 31.0613L15.8633 31.0613L8.85523 37.1764C8.75801 37.2602 8.70246 37.3832 8.70246 37.5145V39.7772C8.70246 39.9672 8.92467 40.0706 9.06911 39.9449Z" fill="#1E1E1E"/>
<path d="M9.06911 59.9449L19.6937 50.673C19.7899 50.5892 19.867 50.4856 19.9198 50.3692C19.9727 50.2528 20 50.1263 20 49.9984C20 49.8704 19.9727 49.7439 19.9198 49.6275C19.867 49.5111 19.7899 49.4075 19.6937 49.3237L9.06911 40.0546C9.03709 40.0266 8.99773 40.0085 8.95574 40.0023C8.91374 39.9962 8.87087 40.0023 8.83223 40.02C8.7936 40.0376 8.76082 40.0661 8.73781 40.1019C8.71481 40.1378 8.70253 40.1796 8.70246 40.2223V42.485C8.70246 42.6136 8.75801 42.7365 8.85523 42.8231L15.8633 48.9382H0.222214C0.0999964 48.9382 7.81921e-08 49.0388 7.28498e-08 49.1617L0 50.8378C-5.34231e-09 50.9607 0.0999963 51.0613 0.222214 51.0613L15.8633 51.0613L8.85523 57.1764C8.75801 57.2602 8.70246 57.3832 8.70246 57.5145V59.7772C8.70246 59.9672 8.92467 60.0706 9.06911 59.9449Z" fill="#1E1E1E"/>
</svg>
