<svg width="24" height="24" viewBox="0 0 24 24" fill="none" xmlns="http://www.w3.org/2000/svg">
<path fill-rule="evenodd" clip-rule="evenodd" d="M6.36402 2.66974C3.3779 4.14722 0.951055 5.37182 0.971033 5.39101C0.99101 5.4102 1.95804 5.89353 3.12002 6.46512L5.23271 7.50432L10.6585 4.72439C13.6426 3.19549 16.0837 1.93236 16.0831 1.91753C16.0825 1.90275 15.2226 1.46978 14.1721 0.955433C12.631 0.200834 12.217 0.0167006 12.0278 0.00182542C11.7988 -0.0161468 11.6649 0.0469671 6.36402 2.66974ZM12.7013 5.72774C8.24354 8.01115 7.29203 8.51494 7.3552 8.55839C7.39746 8.58748 8.46208 9.11886 9.72104 9.73925L12.0101 10.8672L15.2782 9.24725C17.0756 8.35624 19.5698 7.12052 20.8207 6.50125L23.0951 5.37529L20.6391 4.16082C19.2883 3.4929 18.1699 2.94721 18.1536 2.94819C18.1375 2.94918 15.6839 4.19996 12.7013 5.72774ZM0.000107885 12.4085C0.00109269 17.5937 0.0051257 17.8537 0.0877087 18.0328C0.135308 18.136 0.22455 18.266 0.285983 18.3217C0.347416 18.3773 2.79288 19.6729 5.72033 21.2008C8.64778 22.7286 11.0588 23.9883 11.0781 24C11.0975 24.0116 11.1133 21.4159 11.1133 18.2315V12.4419L8.74082 11.2722C7.43596 10.6288 6.34915 10.0954 6.3257 10.0868C6.30066 10.0776 6.28308 10.7342 6.28308 11.6792C6.28308 13.2219 6.27904 13.2955 6.18361 13.4928C5.94402 13.988 5.25386 14.1321 4.84442 13.7724C4.50044 13.4702 4.50339 13.4922 4.50086 11.2052L4.49861 9.16396L2.33091 8.09904C1.13868 7.51333 0.126257 7.02015 0.0811434 7.00302C0.00329678 6.9735 -0.000876921 7.24998 0.000107885 12.4085ZM18.4525 9.70261L12.9657 12.4162L12.937 14.5206C12.9212 15.678 12.9054 18.2773 12.9018 20.2969C12.8967 23.2083 12.9075 23.968 12.954 23.9651C12.9862 23.9631 15.4816 22.6694 18.4994 21.0902L23.9861 18.2189L23.998 12.6004C24.0046 9.51026 23.9941 6.98354 23.9746 6.98547C23.9551 6.98739 21.4702 8.21007 18.4525 9.70261Z" fill="#B1404B"/>
</svg>
