<svg width="16" height="26" viewBox="0 0 16 26" fill="none" xmlns="http://www.w3.org/2000/svg">
<path fill-rule="evenodd" clip-rule="evenodd" d="M0 1.52371V3.04741L8 3.03457L16 3.02172V1.52371V0.0256947L8 0.0128474L0 0V1.52371ZM1.61769 5.32297C1.61769 6.72907 1.64808 6.92066 1.9383 7.346C2.06281 7.52845 2.86827 8.20454 5.05939 9.96579C6.68365 11.2714 8.02401 12.3397 8.03792 12.3397C8.05182 12.3398 9.39329 11.2715 11.0189 9.96584C13.2457 8.17747 14.0154 7.53124 14.14 7.346C14.428 6.91762 14.4581 6.72602 14.4581 5.32297V4.06271H8.03792H1.61769V5.32297ZM5.25149 15.7991C3.73945 16.9755 2.39312 18.0438 2.25961 18.1731C2.1257 18.3027 1.94437 18.5555 1.85519 18.7369L1.69352 19.0657L1.67735 20.5015L1.66122 21.9373H8.1102H14.5592V20.7279C14.5592 19.1533 14.4982 18.8362 14.0968 18.3236C13.9563 18.1443 8.13816 13.6601 8.0459 13.6601C8.02098 13.6601 6.76348 14.6227 5.25149 15.7991ZM0 24.4763V26L8 25.9872L16 25.9743V24.4763V22.9783L8 22.9654L0 22.9526V24.4763Z" fill="#B1404B"/>
</svg>
