<svg width="24" height="29" viewBox="0 0 24 29" fill="none" xmlns="http://www.w3.org/2000/svg">
<g filter="url(#filter0_d_9_375)">
<path fill-rule="evenodd" clip-rule="evenodd" d="M9.17647 0.277121V4.51613H8.85029C8.58235 4.51613 8.49824 4.54091 8.37971 4.65472C8.23529 4.79325 8.23529 4.79342 8.23529 6.00956V7.22581H4.28876L4 7.50293V27.7229L4.28876 28H19.7112L20 27.7229V7.50293L19.7112 7.22581H15.7647V6.00956C15.7647 4.79342 15.7647 4.79325 15.6203 4.65472C15.5018 4.54091 15.4176 4.51613 15.1497 4.51613H14.8235V0.277121L14.5348 0H9.46524L9.17647 0.277121ZM13.8824 4.51613H10.1176V0.903226H13.8824V4.51613ZM11.6738 2.39665C11.382 2.67665 11.5888 3.16129 12 3.16129C12.2418 3.16129 12.4706 2.94175 12.4706 2.70968C12.4706 2.4776 12.2418 2.25806 12 2.25806C11.8854 2.25806 11.7648 2.30927 11.6738 2.39665ZM19.0588 27.0968H4.94118V8.12903H19.0588V27.0968ZM5.88235 9.30938V25.9164L6.17112 26.1935H17.8289L18.1176 25.9164V9.30938L17.8289 9.03226H6.17112L5.88235 9.30938Z" fill="#B1404B"/>
<path d="M9.17647 5.01613H9.61765H9.67647H10.1176H13.8824H14.3235H14.3824H14.8235H15.1497C15.1948 5.01613 15.2279 5.01694 15.2528 5.01829C15.264 5.16385 15.2647 5.43543 15.2647 6.00956V7.22581V7.62903H8.73529V7.22581V6.00956C8.73529 5.43543 8.73599 5.16385 8.74716 5.01829C8.77212 5.01694 8.80524 5.01613 8.85029 5.01613H9.17647ZM12 2.66129C11.9998 2.66129 11.9998 2.6613 12 2.66135C12.0001 2.66136 12.0001 2.66137 12.0002 2.66139C12.0019 2.66173 12.009 2.66315 12.0172 2.6688C12.0254 2.67443 12.0304 2.68119 12.0332 2.68778C12.0352 2.69248 12.0372 2.69987 12.0372 2.70968C12.0372 2.71361 12.0368 2.71793 12.036 2.72262C12.033 2.73897 12.0258 2.75045 12.0218 2.7554C12.0211 2.75562 12.0202 2.75588 12.019 2.75615C12.019 2.75617 12.0189 2.75619 12.0188 2.75621C12.0186 2.75626 12.0183 2.75632 12.018 2.75638C12.0145 2.75713 12.0085 2.75806 12 2.75806C11.9902 2.75806 11.9833 2.75666 11.9793 2.75554C11.9793 2.75549 11.9793 2.75543 11.9793 2.75537C11.9766 2.74976 11.9706 2.73421 11.9706 2.70968C11.9706 2.70843 11.9706 2.7072 11.9706 2.706C11.9706 2.70591 11.9706 2.70583 11.9706 2.70574C11.9712 2.68348 11.9767 2.66929 11.9793 2.66399C11.9793 2.66393 11.9793 2.66387 11.9793 2.66381C11.9833 2.66269 11.9902 2.66129 12 2.66129ZM6.38235 25.6935V9.53226H17.6176V25.6935H6.38235Z" stroke="black"/>
</g>
<defs>
<filter id="filter0_d_9_375" x="0" y="0" width="24" height="36" filterUnits="userSpaceOnUse" color-interpolation-filters="sRGB">
<feFlood flood-opacity="0" result="BackgroundImageFix"/>
<feColorMatrix in="SourceAlpha" type="matrix" values="0 0 0 0 0 0 0 0 0 0 0 0 0 0 0 0 0 0 127 0" result="hardAlpha"/>
<feOffset dy="4"/>
<feGaussianBlur stdDeviation="2"/>
<feComposite in2="hardAlpha" operator="out"/>
<feColorMatrix type="matrix" values="0 0 0 0 0 0 0 0 0 0 0 0 0 0 0 0 0 0 0.25 0"/>
<feBlend mode="normal" in2="BackgroundImageFix" result="effect1_dropShadow_9_375"/>
<feBlend mode="normal" in="SourceGraphic" in2="effect1_dropShadow_9_375" result="shape"/>
</filter>
</defs>
</svg>
